<?xml version="1.0" encoding="UTF-8" standalone="no"?>
<!DOCTYPE svg PUBLIC "-//W3C//DTD SVG 1.1//EN" "http://www.w3.org/Graphics/SVG/1.1/DTD/svg11.dtd">
<svg width="100%" height="100%" viewBox="0 0 1500 1650" version="1.1" xmlns="http://www.w3.org/2000/svg" xmlns:xlink="http://www.w3.org/1999/xlink" xml:space="preserve" xmlns:serif="http://www.serif.com/" style="fill-rule:evenodd;clip-rule:evenodd;stroke-linejoin:round;stroke-miterlimit:2;">
    <g id="Layer-1" serif:id="Layer 1" transform="matrix(4.16667,0,0,4.16667,0,0)">
        <g transform="matrix(1,0,0,1,145.752,59.3723)">
            <path d="M0,195.916L19.686,163.689L-47.431,163.689L49.501,0L-97.305,0L-97.305,31.206L-11.877,31.206L-110.604,195.916L0,195.916Z" style="fill:white;fill-rule:nonzero;"/>
        </g>
        <g transform="matrix(1,0,0,1,224.104,159.317)">
            <path d="M0,135.554L0,79.286L36.317,79.286C49.107,79.286 63.94,88.493 63.94,107.164C63.94,127.369 49.875,135.554 36.062,135.554L0,135.554ZM0,0.767L26.603,0.767C39.133,0.767 48.085,11.509 48.085,23.274C48.085,38.618 38.365,48.85 25.834,48.85L0,48.85L0,0.767ZM103.073,108.7C103.073,83.633 81.082,60.359 61.897,59.848L61.897,59.336C78.266,52.687 85.683,37.086 85.683,18.671C85.683,-7.928 65.73,-30.181 40.414,-30.181L-1.669,-30.181L-36.316,26.65L-36.316,165.735L48.085,165.735C76.222,165.735 103.073,143.484 103.073,108.7" style="fill:white;fill-rule:nonzero;"/>
        </g>
        <g transform="matrix(1,0,0,1,80.8761,27.6866)">
            <path d="M0,338.006C-0.613,338.006 -1.24,337.842 -1.803,337.501C-3.452,336.502 -3.979,334.359 -2.979,332.71L197.385,2.171C198.385,0.531 200.528,0 202.177,0.995C203.825,1.994 204.353,4.138 203.354,5.786L2.989,336.325C2.33,337.406 1.181,338.006 0,338.006" style="fill:rgb(250,200,89);fill-rule:nonzero;"/>
        </g>
    </g>
</svg>
